<svg xmlns="http://www.w3.org/2000/svg" viewBox="0 0 64 64">
  <defs>
    <linearGradient id="g" x1="0" x2="1" y1="0" y2="1">
      <stop offset="0" stop-color="#E9CD7B"/>
      <stop offset="1" stop-color="#8a6b1a"/>
    </linearGradient>
  </defs>
  <rect width="64" height="64" rx="14" fill="#0a0a0a"/>
  <path fill="url(#g)" d="M14 36c0-2 2-4 4-4h28c2 0 4 2 4 4v8h-6a4 4 0 1 1-8 0H28a4 4 0 1 1-8 0h-6v-8z"/>
  <path fill="#0a0a0a" d="M18 32l4-10c.6-1.4 2-2.4 3.4-2.4h13.2c1.5 0 2.8 1 3.4 2.4l4 10H18z"/>
</svg>
